<?xml version="1.0" encoding="UTF-8" standalone="no"?>
<svg
   xmlns:dc="http://purl.org/dc/elements/1.1/"
   xmlns:cc="http://creativecommons.org/ns#"
   xmlns:rdf="http://www.w3.org/1999/02/22-rdf-syntax-ns#"
   xmlns:svg="http://www.w3.org/2000/svg"
   xmlns="http://www.w3.org/2000/svg"
   viewBox="0 0 1066.6667 200"
   height="200"
   width="1066.6667"
   xml:space="preserve"
   id="svg2"
   version="1.1"><metadata
     id="metadata8"><rdf:RDF><cc:Work
         rdf:about=""><dc:format>image/svg+xml</dc:format><dc:type
           rdf:resource="http://purl.org/dc/dcmitype/StillImage" /></cc:Work></rdf:RDF></metadata><defs
     id="defs6"><clipPath
       id="clipPath18"
       clipPathUnits="userSpaceOnUse"><path
         id="path16"
         d="M 0,150 H 800 V 0 H 0 Z" /></clipPath></defs><g
     transform="matrix(1.3333333,0,0,-1.3333333,0,200)"
     id="g10"><g
       id="g12"><g
         clip-path="url(#clipPath18)"
         id="g14"><g
           transform="translate(800.7695,0.1377)"
           id="g20"><path
             id="path22"
             style="fill:#373535;fill-opacity:1;fill-rule:nonzero;stroke:none"
             d="m 0,0 c -0.853,2.015 -1.641,4.074 -2.455,6.129 -1.039,0.296 -2.043,0.857 -2.96,1.718 -1.681,1.576 -2.228,3.7 -2.4,5.875 -0.636,0.066 -1.292,0.17 -1.968,0.339 -3.568,0.894 -8.062,3.611 -10.553,6.356 -2.101,2.318 -4.943,8.2 -8.345,8.55 -3.654,0.375 -6.71,2.774 -6.727,6.727 0,1.031 -0.787,2.066 -1.801,3.113 -2.024,0.766 -3.616,2.446 -4.191,4.547 -1.198,0.276 -2.386,0.626 -3.571,1.15 -2.011,0.89 -3.07,2.98 -3.245,5.14 -0.599,0.12 -1.203,0.244 -1.807,0.368 -3.254,-0.404 -12.738,-5.078 -14.006,-7.568 -2.216,-0.127 -3.516,0.915 -5.197,0.726 -1.916,-0.204 -2.284,-1.865 -3.389,-2.438 -1.507,0.164 -3.01,0.328 -4.517,0.49 -1.887,-0.377 -4.099,-2.265 -6.555,-1.224 -0.687,0.541 -0.581,1.33 -1.126,1.954 -4.898,3.412 -9.76,5.257 -15.135,8.06 -2.819,1.472 -5.04,3.792 -8.361,4.884 -4.416,1.454 -9.734,0.74 -14.006,1.952 -1.259,0.362 -2.882,1.755 -4.517,2.198 -7.947,2.157 -17.231,2.549 -24.853,2.439 -1.881,0.654 -3.762,1.306 -5.644,1.956 -1.566,0.308 -1.963,-0.813 -2.712,-0.977 -0.678,0.247 -1.356,0.489 -2.036,0.736 -3.32,0.483 -6.94,-1.323 -8.585,-2.932 -9.593,2.285 -10.076,8.163 -16.493,11.719 -3.78,-0.127 -5.287,-3.142 -8.355,-4.152 -3.317,-1.084 -15.177,-0.006 -17.395,0.734 -1.332,0.44 -1.666,2.561 -3.165,3.174 -5.732,2.353 -12.13,2.614 -16.716,6.108 -1.254,0.949 -1.603,3.038 -2.711,3.904 -2.692,2.109 -6.818,4.428 -9.715,5.861 -7.83,3.009 -15.662,6.022 -23.492,9.034 -3.543,1.05 -6.143,-0.532 -8.358,0.242 -0.794,0.541 -1.086,1.651 -1.356,2.69 -3.844,1.39 -4.63,0.598 -8.361,-0.245 -1.824,1.019 -4.339,3.027 -5.426,4.88 -0.599,-0.322 -1.203,-0.651 -1.801,-0.975 -0.23,0.814 -0.456,1.628 -0.682,2.442 -3.962,1.091 -5.32,1.209 -7.68,3.663 -0.605,-0.406 -1.202,-0.814 -1.807,-1.223 -1.133,0.812 -2.258,1.628 -3.391,2.44 -0.426,0.82 0.183,1.427 -0.447,1.957 -1.895,1.573 -3.91,1.084 -5.878,2.195 -4.015,2.27 -11.338,7.351 -16.943,5.371 -0.995,-0.348 -1.864,-1.835 -3.162,-2.44 -1.773,1.341 -5.066,2.256 -6.103,4.394 -1.335,0.55 -2.589,-0.5 -4.516,0 -0.599,0.411 -1.203,0.817 -1.808,1.22 -2.462,4.776 0.863,7.302 -6.548,7.814 -0.38,0.975 -0.754,1.954 -1.134,2.932 -2.537,-0.685 -6.445,-8.453 -7.455,-11.233 -2.85,-0.892 -8.737,-3.507 -10.844,-5.374 -1.501,-1.329 -1.334,-3.386 -3.613,-4.149 -4.385,-1.461 -7.665,1.001 -11.745,0.489 -4.466,-0.561 -6.157,-2.891 -10.396,-3.665 -0.717,-1.261 -1.162,-2.722 -1.351,-4.632 -1.593,-0.478 -2.536,0.126 -3.844,0.489 -2.632,-1.779 -1.98,-5.953 -4.969,-7.573 h -1.581 v 1.951 c -2.207,-0.414 -2.636,-2.02 -2.713,-4.638 -2.899,-1.807 -5.534,-2.762 -9.712,-3.663 -6.042,-11.704 -17.33,-17.3 -19.652,-32.23 -0.606,-0.406 -1.208,-0.817 -1.813,-1.222 -0.598,0.622 -0.724,1.343 -0.9,2.445 h -0.907 c -0.78,-1.836 -1.125,-5.55 -2.484,-6.842 -0.678,-0.081 -1.354,-0.161 -2.033,-0.239 -1.131,-0.731 -2.012,-2.929 -3.389,-3.668 -5.875,-3.137 -10.862,-4.546 -14.909,-9.031 -4.786,-0.263 -4.907,2.201 -8.134,3.418 -3.105,1.171 -3.882,-2.141 -6.552,2.198 -1.506,-0.405 -3.011,-0.814 -4.515,-1.221 -1.734,1.385 -3.467,2.769 -5.198,4.147 -1.125,-0.732 -1.643,-1.865 -3.162,-2.196 -1.837,-0.393 -16.492,5.251 -17.848,6.353 -1.118,0.906 -1.257,3.013 -2.712,3.658 -2.043,0.911 -3.989,-0.576 -6.1,0 -2.335,1.305 -4.668,2.606 -7.002,3.906 -2.704,1.992 -8.439,8.494 -11.748,6.106 -9.339,7.276 -10.427,1.082 -18.978,-0.732 -3.765,0.245 -7.53,0.49 -11.294,0.732 -1.373,-0.371 -4.964,-1.508 -7.002,-0.973 -0.758,0.196 -2.68,1.415 -4.294,0.731 -0.377,-0.49 -0.753,-0.979 -1.129,-1.465 -1.593,-0.986 -6.957,-1.421 -8.812,-1.222 -1.81,0.244 -3.615,0.489 -5.42,0.735 -1.748,-0.383 -2.028,-1.648 -4.52,-1.466 -0.829,-1.629 -1.658,-3.256 -2.483,-4.885 -1.355,-1.221 -2.714,-2.44 -4.067,-3.666 -0.581,-0.987 -0.049,-2.238 -0.226,-3.171 -0.567,-2.929 -5.377,-7.469 -8.361,-7.081 -1.84,-3.371 -5.776,-5.02 -10.842,-4.154 -1.663,-2.702 -3.211,-7.386 -7.231,-7.564 -1.004,0.955 -1.713,1.134 -2.036,2.929 -1.071,0.684 -2.531,0.763 -4.513,0.73 -0.538,-0.483 -0.979,-1.032 -1.392,-1.593 -2.582,0.248 -3.183,1.099 -4.936,1.76 -6.126,0.202 -12.258,0.409 -18.386,0.613 -2.17,0.786 -10.208,3.881 -14.836,1.837 -1.578,-0.7 -3.161,-2.958 -4.516,-3.675 -2.568,-1.352 -4.764,-0.731 -7.417,-1.836 -0.967,-0.814 -1.936,-1.631 -2.903,-2.445 -2.886,-1.176 -5.148,0.028 -7.744,-1.226 -0.725,-0.351 -1.849,-2.106 -2.58,-2.446 -4.134,-1.945 -11.178,1.353 -14.836,-0.615 -3.309,-1.784 -9.074,-6.324 -14.311,-7.176 -1.693,-1.813 -4.374,-2.805 -6.905,-2.239 -0.66,0.148 -1.289,0.369 -1.916,0.593 -4.908,-2.802 -10.635,-4.228 -16.004,-5.754 -0.693,-0.195 -1.342,-0.259 -1.966,-0.259 -0.012,-0.032 -0.021,-0.058 -0.035,-0.086 -0.885,-2.014 -3.683,-3.454 -5.807,-3.332 -2.367,0.132 -4.335,0.8 -6.128,2.005 -1.179,-1.775 -2.716,-3.305 -4.55,-4.336 -3.752,-2.105 -7.58,-2.324 -11.75,-1.731 -0.47,0.068 -0.908,0.21 -1.32,0.399 -2.956,-1.601 -5.534,-3.542 -7.938,-5.665 H 0.057 C 0.039,-0.094 0.017,-0.042 0,0" /></g></g></g></g></svg>